<?xml version="1.0" standalone="no"?>
<!DOCTYPE svg PUBLIC "-//W3C//DTD SVG 20010904//EN"
        "http://www.w3.org/TR/2001/REC-SVG-20010904/DTD/svg10.dtd">
<svg version="1.0" xmlns="http://www.w3.org/2000/svg"
     width="1024.000000pt" height="1024.000000pt" viewBox="0 0 1024.000000 1024.000000"
     preserveAspectRatio="xMidYMid meet">

    <g transform="translate(0.000000,1024.000000) scale(0.100000,-0.100000)"
       fill="#000000" stroke="none">
        <path d="M24 8338 c14 -24 846 -1490 1851 -3258 1004 -1768 1829 -3216 1833
-3217 4 -2 235 384 514 857 l508 861 -336 574 c-185 316 -339 575 -343 575 -3
0 -80 -103 -171 -229 -91 -127 -167 -230 -170 -230 -3 0 -525 923 -1161 2052
l-1156 2052 -697 3 -697 2 25 -42z"/>
        <path d="M2638 8282 c821 -1408 3768 -6422 3774 -6420 10 4 2001 3240 2001
3253 0 6 -255 474 -566 1042 -312 568 -567 1035 -567 1038 0 3 256 5 568 5
l569 0 318 -477 c315 -472 318 -477 334 -453 9 13 275 492 592 1064 l576 1041
-1244 3 c-683 1 -1803 1 -2487 0 l-1245 -3 891 -1610 c489 -885 895 -1620 900
-1631 9 -18 -35 -96 -303 -545 -307 -514 -312 -523 -328 -499 -9 13 -565 983
-1237 2154 l-1221 2131 -691 3 -691 2 57 -98z"/>
    </g>
</svg>
